<mxfile host="app.diagrams.net" modified="2024-07-18T16:26:07.528Z" agent="Mozilla/5.0 (X11; Linux x86_64) AppleWebKit/537.36 (KHTML, like Gecko) Chrome/126.0.0.0 Safari/537.36" version="24.7.1" etag="TCkf3MNfB9LcYLX9xwlx" type="github">
  <diagram name="Page-1" id="hvjGQ1aOWMH1BnyXUKD2">
    <mxGraphModel>
      <root>
        <mxCell id="0" />
        <mxCell id="1" parent="0" />
      </root>
    </mxGraphModel>
  </diagram>
</mxfile>
